<?xml version="1.0" standalone="no"?>
<!DOCTYPE svg PUBLIC "-//W3C//DTD SVG 20010904//EN"
 "http://www.w3.org/TR/2001/REC-SVG-20010904/DTD/svg10.dtd">
<svg version="1.0" xmlns="http://www.w3.org/2000/svg"
 width="591.000000pt" height="591.000000pt" viewBox="0 0 591.000000 591.000000"
 preserveAspectRatio="xMidYMid meet">
<metadata>
Created by potrace 1.11, written by Peter Selinger 2001-2013
</metadata>
<g transform="translate(0.000000,591.000000) scale(0.100000,-0.100000)"
fill="#000000" stroke="none">
<path d="M3042 5369 c-35 -11 -39 -34 -5 -33 19 0 20 -5 15 -88 -4 -84 -3 -88
17 -88 19 0 21 6 22 63 1 34 3 83 4 110 3 50 1 51 -53 36z"/>
<path d="M2629 5365 c-4 -4 -54 -10 -106 -14 -6 -1 -11 -10 -10 -21 1 -16 7
-18 33 -14 37 6 39 2 49 -92 8 -73 17 -93 38 -76 11 10 12 25 2 92 -6 44 -9
82 -7 85 3 3 18 5 34 5 21 0 28 5 28 20 0 15 -7 20 -28 20 -16 0 -31 -2 -33
-5z"/>
<path d="M3215 5335 c-43 -42 -28 -98 31 -114 19 -5 42 -7 51 -4 13 5 13 2 4
-14 -13 -26 -57 -35 -77 -16 -12 12 -17 13 -30 2 -14 -12 -14 -15 6 -31 35
-28 86 -23 121 11 16 16 29 38 30 48 0 10 2 26 4 36 16 84 -82 141 -140 82z
m95 -35 c22 -42 -48 -69 -74 -28 -8 13 -6 22 7 36 21 23 53 19 67 -8z"/>
<path d="M2314 5303 c-55 -46 -28 -102 51 -109 59 -6 70 -14 52 -37 -14 -20
-40 -24 -75 -13 -26 9 -44 -20 -21 -35 35 -22 137 3 140 34 7 60 -13 87 -67
87 -42 0 -64 9 -64 25 0 19 17 28 59 29 25 1 36 6 36 16 0 23 -84 25 -111 3z"/>
<path d="M3455 5309 c-10 -15 -3 -19 50 -32 l46 -12 -65 -75 c-61 -70 -64 -76
-44 -85 15 -7 23 -5 32 7 6 8 36 43 66 78 81 92 81 95 5 114 -76 19 -82 19
-90 5z"/>
<path d="M2103 5247 c-34 -12 -65 -25 -68 -29 -9 -9 55 -198 66 -198 13 0 133
42 141 49 4 3 4 12 -1 19 -6 9 -20 8 -64 -6 -47 -16 -57 -17 -62 -5 -11 30 -4
40 36 52 37 11 59 34 46 48 -3 3 -27 -2 -53 -11 -26 -9 -49 -15 -50 -13 -2 2
-5 14 -6 26 -3 20 4 25 47 39 61 19 57 16 49 36 -7 19 -4 20 -81 -7z"/>
<path d="M3710 5241 c-23 -6 -26 -12 -21 -41 0 -6 11 -6 28 1 37 14 55 4 51
-28 -3 -23 -13 -31 -76 -56 -103 -42 -97 -53 54 -101 16 -5 23 -2 26 12 4 15
-4 21 -41 31 l-46 13 52 23 c60 27 84 58 76 99 -4 20 -15 32 -39 42 -18 8 -35
14 -36 13 -2 -1 -14 -4 -28 -8z"/>
<path d="M2763 5202 c-20 -13 -11 -42 14 -42 16 0 23 6 23 19 0 20 -21 33 -37
23z"/>
<path d="M3987 5043 c-18 -17 0 -35 81 -79 273 -148 542 -379 733 -629 222
-290 383 -661 445 -1025 20 -118 28 -229 28 -390 0 -144 -9 -293 -19 -322 -2
-7 -6 -31 -9 -53 -9 -78 -47 -235 -87 -354 -134 -407 -373 -760 -709 -1044
-89 -75 -111 -105 -84 -114 25 -8 245 189 376 337 217 245 388 557 482 876 15
50 28 99 30 110 3 10 9 39 15 64 12 56 18 90 27 149 3 25 7 57 10 71 7 46 16
205 16 285 0 80 -11 276 -17 285 -1 3 -6 32 -9 65 -4 33 -11 76 -16 95 -5 19
-12 51 -15 70 -14 81 -72 268 -123 390 -201 492 -587 922 -1053 1174 -92 49
-92 49 -102 39z"/>
<path d="M1711 4943 c-88 -55 -234 -161 -303 -221 -18 -15 -81 -76 -140 -136
-306 -307 -512 -677 -618 -1106 -17 -69 -22 -97 -36 -185 -3 -16 -7 -41 -10
-55 -23 -136 -22 -510 1 -645 46 -256 78 -376 151 -557 88 -218 204 -416 357
-608 75 -93 314 -330 333 -330 30 0 26 30 -7 57 -129 109 -311 315 -413 468
-173 260 -311 588 -351 835 -3 19 -8 46 -10 60 -14 71 -24 141 -30 220 -6 70
-6 322 0 375 13 124 18 159 36 254 83 432 305 855 614 1172 145 149 307 278
467 372 56 34 88 58 88 70 0 30 -33 19 -129 -40z"/>
<path d="M2124 4719 c-57 -41 -121 -92 -214 -173 -121 -106 -447 -446 -538
-563 -290 -366 -427 -638 -436 -859 -5 -144 25 -226 115 -315 149 -147 294
-140 516 27 203 152 505 514 575 687 21 53 33 163 19 185 -4 7 -26 -14 -61
-59 -30 -39 -60 -76 -65 -83 -6 -6 -39 -47 -75 -91 -277 -345 -492 -532 -619
-537 -53 -2 -83 20 -115 83 -22 45 -25 61 -22 128 11 218 190 537 521 927 75
89 283 292 356 349 l64 50 -65 -79 c-36 -43 -85 -104 -109 -135 -25 -31 -47
-58 -50 -61 -11 -9 -116 -155 -154 -213 -147 -223 -112 -336 115 -372 l36 -6
-1 38 c-1 57 10 88 51 146 147 207 391 413 605 512 192 89 359 126 578 129
250 4 474 -43 751 -156 l96 -40 102 64 c108 67 190 140 190 170 0 9 -10 24
-22 32 -21 14 -236 57 -353 71 -27 3 -63 8 -80 10 -98 15 -325 29 -465 29
-118 0 -303 -10 -346 -18 -10 -2 -48 -7 -84 -11 -36 -4 -68 -9 -71 -11 -3 -2
-21 -6 -40 -9 -65 -11 -223 -57 -296 -86 -100 -39 -156 -69 -236 -122 -37 -25
-67 -43 -67 -40 0 2 17 35 39 71 104 179 113 226 59 287 -29 34 -77 64 -124
79 -14 4 -37 -6 -80 -35z"/>
<path d="M3376 4185 c-85 -30 -167 -125 -168 -195 0 -49 20 -82 77 -122 l43
-31 -92 -116 c-193 -242 -387 -527 -434 -638 -62 -146 -15 -256 125 -289 61
-14 58 -17 68 61 21 172 213 562 413 843 l72 101 32 -10 c18 -5 47 -9 64 -9
17 0 33 -3 37 -6 3 -4 -18 -37 -48 -73 -110 -137 -238 -378 -277 -524 -17 -67
2 -120 60 -164 74 -56 74 -56 223 58 193 148 309 239 349 276 19 17 46 41 60
53 l25 22 12 -39 c25 -82 20 -94 -62 -153 -65 -47 -77 -61 -89 -100 -15 -52
-7 -93 24 -124 23 -24 101 -27 161 -7 69 23 129 102 150 199 9 45 18 56 97
123 156 133 252 220 410 374 l123 120 -26 22 c-14 13 -38 23 -53 23 -26 0 -84
-33 -121 -69 -169 -162 -419 -377 -428 -368 -12 12 -35 139 -35 197 -1 90 28
155 101 223 32 28 75 62 98 74 l40 22 -18 -52 c-28 -80 -25 -123 11 -159 41
-40 61 -34 65 19 2 26 24 84 55 149 49 99 52 108 42 143 -15 48 -65 107 -112
131 l-37 19 -90 -44 c-157 -79 -313 -222 -373 -343 -29 -57 -34 -145 -13 -209
14 -39 14 -45 0 -56 -51 -40 -367 -277 -390 -292 -27 -17 -27 -16 14 56 23 41
65 106 94 144 54 72 69 90 137 161 34 36 40 48 42 95 8 134 -27 164 -251 219
-1 0 11 25 27 56 35 66 33 113 -8 158 -56 60 -145 80 -226 51z m100 -111 c8
-32 -59 -126 -84 -117 -72 25 -66 106 11 138 39 16 66 9 73 -21z"/>
<path d="M2654 4170 c-125 -63 -314 -333 -480 -687 -92 -195 -108 -287 -64
-372 21 -43 104 -121 128 -121 15 0 262 244 355 350 26 30 47 51 47 47 0 -4
-8 -38 -18 -75 -33 -120 -9 -207 75 -282 52 -45 73 -50 74 -17 1 33 7 62 34
169 62 240 151 421 316 644 28 38 31 50 33 125 3 98 -18 164 -68 206 l-31 25
-38 -43 c-22 -24 -62 -78 -90 -118 l-50 -75 -17 60 c-42 155 -113 211 -206
164z m94 -293 c7 -15 17 -50 21 -77 7 -45 6 -52 -17 -72 -13 -13 -70 -75 -125
-138 -56 -63 -141 -155 -189 -205 -103 -106 -104 -101 -12 102 94 209 164 332
225 391 41 40 78 40 97 -1z"/>
<path d="M3550 2907 c-31 -13 -78 -38 -105 -56 -59 -40 -212 -195 -274 -277
l-44 -59 -187 62 c-203 68 -522 153 -665 177 -49 8 -106 18 -125 21 -78 14
-317 14 -376 0 -50 -11 -65 -21 -101 -62 -52 -59 -89 -125 -98 -177 -7 -34 -6
-38 11 -33 11 4 64 15 119 26 90 17 133 23 285 36 160 14 477 -1 640 -30 14
-3 42 -7 63 -11 56 -8 297 -70 335 -85 l32 -14 -36 -55 c-104 -155 -354 -633
-425 -810 -29 -73 -31 -184 -5 -226 24 -38 116 -125 126 -119 4 3 10 19 14 36
7 34 96 263 147 379 114 255 313 626 375 699 27 31 48 43 106 61 84 25 163 64
230 112 216 155 300 352 175 411 -51 25 -149 22 -217 -6z m120 -129 c0 -37
-139 -163 -245 -223 l-50 -28 35 38 c88 96 231 224 253 225 4 0 7 -6 7 -12z"/>
<path d="M3703 2430 c-161 -36 -446 -328 -580 -595 -96 -190 -116 -396 -50
-521 35 -67 111 -107 190 -100 73 7 249 144 443 344 l42 44 -1 -104 c-1 -191
48 -270 181 -285 50 -5 100 16 208 88 158 106 329 255 591 515 154 154 161
162 147 182 -34 49 -117 33 -189 -35 -55 -53 -279 -237 -375 -309 -111 -83
-319 -224 -331 -224 -25 0 -28 107 -4 163 14 34 17 36 31 22 40 -39 47 -37
155 34 184 122 344 278 425 417 22 37 26 57 26 112 -1 167 -42 236 -141 235
-90 0 -235 -94 -371 -239 -290 -310 -655 -648 -778 -721 -51 -30 -57 -26 -68
45 -23 150 167 484 379 670 52 45 61 40 33 -16 -33 -65 -49 -129 -41 -168 6
-37 51 -77 96 -88 25 -5 26 -4 24 32 -3 45 28 141 75 232 54 108 69 160 56
200 -18 56 -95 87 -173 70z m747 -258 c0 -24 -74 -116 -168 -210 -98 -96 -202
-183 -202 -167 0 26 168 245 252 328 68 67 81 76 98 67 11 -6 20 -14 20 -18z"/>
<path d="M2279 2381 c-57 -37 -143 -71 -183 -71 -12 0 -38 14 -56 30 -18 17
-39 30 -46 30 -6 0 -20 -17 -31 -38 -10 -21 -24 -37 -30 -35 -18 6 -92 -93
-128 -170 -54 -117 -42 -239 28 -276 38 -20 73 -6 133 54 65 65 123 178 131
256 l5 54 52 18 c28 10 59 21 69 24 15 5 10 -12 -26 -83 -103 -206 -111 -234
-78 -287 34 -55 45 -53 98 16 60 80 154 189 159 184 2 -2 -5 -33 -15 -70 -11
-36 -18 -72 -17 -79 5 -34 30 -77 51 -88 23 -12 29 -8 126 91 121 124 189 202
189 218 0 6 -11 11 -24 11 -18 0 -55 -29 -128 -99 -56 -55 -104 -98 -106 -97
-8 9 44 120 84 181 25 39 48 84 51 101 6 43 -21 104 -46 104 -20 0 -141 -113
-225 -210 -38 -44 -45 -48 -32 -22 9 18 35 60 56 94 44 68 50 108 24 164 -9
19 -19 34 -23 33 -3 0 -31 -17 -62 -38z m-257 -171 c25 0 23 -17 -13 -85 -59
-115 -137 -210 -156 -191 -3 3 -5 20 -5 39 0 38 22 85 76 166 20 29 36 64 36
78 0 23 1 23 22 9 12 -9 30 -16 40 -16z"/>
<path d="M1855 1008 c-139 -112 -137 -110 -121 -127 15 -14 19 -14 45 2 28 16
30 16 69 -6 33 -18 39 -27 36 -50 -2 -19 3 -30 18 -38 11 -6 21 -9 23 -7 5 5
13 65 20 153 4 44 9 82 11 84 5 6 -29 30 -41 30 -5 0 -32 -18 -60 -41z m41
-60 c-2 -18 -5 -34 -5 -36 -1 -1 -10 2 -22 9 l-21 11 23 24 c29 31 31 30 25
-8z"/>
<path d="M3874 979 c-70 -34 -81 -43 -77 -60 6 -21 23 -22 64 -5 12 5 24 -11
53 -74 21 -44 41 -80 45 -80 4 0 15 6 25 13 17 13 16 17 -18 85 -20 39 -36 76
-36 81 0 6 13 17 30 26 26 14 28 18 18 35 -7 11 -15 20 -18 19 -3 0 -42 -18
-86 -40z"/>
<path d="M2101 911 c-33 -33 -27 -68 19 -110 22 -20 40 -42 40 -49 0 -21 -40
-13 -65 14 -20 22 -27 24 -45 14 -19 -10 -20 -14 -8 -32 19 -28 76 -58 110
-58 30 0 68 40 68 72 0 11 -20 39 -45 62 -26 23 -43 45 -39 49 13 13 37 7 59
-13 23 -21 55 -18 55 4 0 23 -48 58 -88 63 -32 4 -44 1 -61 -16z"/>
<path d="M3629 883 l-76 -26 36 -109 c31 -94 38 -108 56 -106 21 3 26 32 12
74 -6 18 -1 23 35 34 54 17 61 23 54 48 -6 19 -8 19 -57 4 -44 -14 -51 -14
-59 -2 -15 23 -13 25 45 44 47 14 55 21 55 42 0 29 -5 29 -101 -3z"/>
<path d="M2359 856 c-1 -3 -2 -9 -3 -13 -31 -130 -47 -205 -44 -207 1 -2 13
-6 24 -10 19 -6 23 -1 33 39 9 36 15 45 29 41 9 -3 29 -8 43 -11 25 -6 26 -9
18 -46 -5 -22 -7 -44 -4 -50 10 -16 43 -10 49 9 15 51 46 205 41 210 -3 3 -5
2 -5 -2 0 -4 -8 -2 -19 3 -16 9 -20 5 -31 -34 -13 -48 -20 -51 -67 -34 -30 10
-30 11 -21 51 5 22 7 42 6 43 -8 7 -48 16 -49 11z"/>
<path d="M3335 813 c-112 -29 -127 -183 -22 -228 55 -23 143 7 162 54 23 56 6
127 -37 154 -27 18 -75 27 -103 20z m78 -75 c37 -43 10 -106 -47 -112 -26 -3
-62 25 -67 54 -14 72 66 113 114 58z"/>
<path d="M2702 780 c-85 -36 -92 -174 -11 -215 36 -19 109 -16 134 5 14 12 14
15 -1 31 -12 14 -21 16 -35 9 -49 -27 -99 2 -99 58 0 60 59 91 107 57 19 -14
23 -13 38 1 15 16 15 18 -2 35 -22 22 -98 33 -131 19z"/>
<path d="M2946 770 c-1 -3 -1 -11 0 -17 1 -7 2 -58 3 -113 1 -91 3 -100 20
-100 24 0 39 19 36 48 -3 40 23 37 63 -6 29 -32 43 -40 60 -35 28 7 27 9 -3
45 l-25 30 20 25 c29 37 26 87 -7 113 -23 18 -38 21 -96 18 -38 -1 -70 -5 -71
-8z m133 -54 c12 -14 5 -45 -10 -47 -5 -1 -18 -1 -29 -1 -37 0 -40 2 -40 32 0
27 3 30 34 30 18 0 39 -6 45 -14z"/>
</g>
</svg>
