<?xml version="1.0" encoding="utf-8"?>
<!-- Generator: Adobe Illustrator 24.3.0, SVG Export Plug-In . SVG Version: 6.00 Build 0)  -->
<svg version="1.1" id="Layer_2" xmlns="http://www.w3.org/2000/svg" xmlns:xlink="http://www.w3.org/1999/xlink" x="0px" y="0px"
	 viewBox="0 0 650.1 324.3" style="enable-background:new 0 0 650.1 324.3;" xml:space="preserve">
<path d="M497.4,287.4c4-0.1,8.1-0.2,12.1-0.3c0.9,0,1.8,0,2.7-0.1l-0.1,0.3c-1.9,0-3.7,0-5.6,0C503.5,287.4,500.5,287.3,497.4,287.4
	z M62.4,103.6l8.8-62.3h62.3l-3,20.8H172l8.8-62.3H35.5L15,145.1h145.3l8.7-62.3h-41.5l-2.9,20.8H62.4z M170.7,145.1h41.5l5.8-41.7
	h62.1l-5.6,41.7H316L336.5-0.2H191.2L170.7,145.1z M289.1,41.3l-4.5,31.1h-62.3l4.5-31.1H289.1z M413.1,145.1h58.7L445,114h31
	L492.1-0.2H346.8l-20.4,145.3h41.5l6.3-45.1L413.1,145.1z M444.8,41.3l-4.5,31.1h-62.3l4.5-31.1H444.8z M627.4,145.1l13.1-93.4
	H536.7l1.6-10.4H642l5.8-41.5H502.5l-13.2,93.4h103.8l-1.5,10.4H487.9l-5.8,41.5H627.4z M271.6,111.3L224,111L194,324.7h47.5
	L271.6,111.3z M305.2,276.3l10.3-72.5H388l-3.5,24.2h48.4l10.3-72.5H273.9l-23.8,169.2h169.2l10.2-72.5h-48.4l-3.4,24.2H305.2z
	 M488.2,264.2h120.9l6.8-48.4H495l1.8-12.1h120.9l6.8-48.4H455.2l-23.8,169.2h169.2l6.8-48.4H486.6L488.2,264.2z M0.1,250.1h94
	l13.2-94h-94L0.1,250.1z M76.7,183L71,223.3H30.7l5.7-40.3H76.7z M133.1,156.1h-19l-13.2,94h26.9l6.8-48.2l41.4,48.2h19l13.2-94
	h-26.9l-6.8,48.2L133.1,156.1z"/>
</svg>
