<?xml version="1.0" encoding="utf-8"?>
<!-- Generator: Adobe Illustrator 24.3.0, SVG Export Plug-In . SVG Version: 6.00 Build 0)  -->
<svg version="1.1" id="Layer_2" xmlns="http://www.w3.org/2000/svg" xmlns:xlink="http://www.w3.org/1999/xlink" x="0px" y="0px"
	 viewBox="0 0 931.3 282.5" style="enable-background:new 0 0 931.3 282.5;" xml:space="preserve">
<style type="text/css">
	.st0{fill:url(#SVGID_1_);}
</style>
<linearGradient id="SVGID_1_" gradientUnits="userSpaceOnUse" x1="83.4408" y1="-77.9873" x2="858.1631" y2="369.2988">
	<stop  offset="0" style="stop-color:#9ACDEC"/>
	<stop  offset="0.275" style="stop-color:#4CA2D5"/>
	<stop  offset="0.3557" style="stop-color:#408DC5"/>
	<stop  offset="0.5035" style="stop-color:#2A6EAC"/>
	<stop  offset="0.6147" style="stop-color:#2A5090"/>
	<stop  offset="0.7074" style="stop-color:#2A3B7F"/>
	<stop  offset="0.7565" style="stop-color:#2B3379"/>
	<stop  offset="0.7916" style="stop-color:#2A3070"/>
	<stop  offset="0.8798" style="stop-color:#26295D"/>
	<stop  offset="0.9524" style="stop-color:#222451"/>
	<stop  offset="1" style="stop-color:#21224D"/>
</linearGradient>
<path class="st0" d="M930,244.9h-7.7c0.2-19,0-38.1-1.3-57.1c-1.9-28.1-2.3-66.8-27.8-85.1c-2.1-1.5-4.8-3-7.5-2.6
	c-2.4,0.4-4.4,2.2-5.8,4.1c-2.6,3.5-5,7.3-6.2,11.5c-0.2,0.6-1.4,4.1-0.7,4.5c-5.6-3.1-13.1-2.7-19.5-2.4
	c-7.5,0.4-14.9,1.6-22.2,3.2c-3.2,0.7-6.3,1.4-9.5,2.2c-2.8,0.7-5.6,1.4-8.4,2c-7.2,1.7-14.6,3-21.9,4c-3.7,0.5-7.4,0.9-11.1,1.2
	c-1.9,0.1-3.7,0.2-5.6,0.4c-0.8,0.1-3.3-0.1-3.8,0.6c1.9-2.6,4.2-5,6.5-7.3c4.2-4.2,8.8-8.2,13.6-11.8c6.6-4.9,13.6-9.3,20.9-12.9
	c9-4.4,18.4-7.9,28.2-10.2c11.6-2.7,23.5-3.9,35.3-3.6C944.4,87.4,930,244.9,930,244.9z M886.9,189.5c0,0-76.9,0.4-78,0l1.5,2.6
	c0,0,59.9,1.8,70.6,1.8c3,0,6.3,0.7,7.8,3.7c1.8,3.6,0.7,8.3-0.2,12c-0.3,1.5-0.7,2.9-1.1,4.3c-0.4,1.3-0.6,2.7-1,4
	c-1,2.7-3.2,5-5.5,6.6c-1.8,1.3-3.7,2.3-5.7,3.2c-11.6,5.1-24.9,6.9-37.4,8.4c-7,0.9-14.1,1.6-21.2,1.9c5.9,0,11.9,0,17.8,0
	c6.8,0,13.6,0,20.4,0c5.1,0,10.2,0.1,15.4,0.1c1.9,0,3.7-0.1,5.6-0.4c12.2-1.8,19.6-12.5,22.9-23.6
	C907.1,185.5,886.9,189.5,886.9,189.5z M798.3,214.3c4.1,8.5,5.1,20.2-2.7,26.9c-10.5,9-27.1,6.7-39.8,6.8
	c-15.3,0.1-30.5,0.1-45.8,0c-20.9-0.1-41.7,0-62.6,0c-2.3,0-4.5,0-6.8,0l-4.8,34.5H488.6l20.7-147.1h147.1l-0.2,1.1
	c23.8-0.1,47.5-0.2,71.3-0.4c21.9-0.2,44.4,0.8,66.1-1.8c17.8-2.1,35.1-7.6,52.8-9.9c11.3-1.5,22.7-1.9,31.9,5.7
	c7.5,6.2,14,15.4,16.3,24.9c0.8,3.2,0.9,6.7,0.2,9.9c-0.3,1.5-2,8.4-4,8.4c0,0-97.1,0.7-97.1,0.7l-15.1-17.7l18,13.2l83.9-0.4
	c0,0-2.9-32-18.4-33.5c-13.8-1.3-27.7,2.4-41.5,3.8c-25.3,2.6-51,1.8-76.4,1c-23.2-0.5-46.4-1-69.6-1.4c-6.3-0.1-12.5-0.3-18.8-0.4
	l-4.6,32.7c49.3,0,92,0,92.1,0c11.3,0,21,5.9,29.4,13c4.9,4.2,9.1,8.9,13.4,13.6C790.9,203,795.3,208.2,798.3,214.3z M791.2,225.2
	c-0.9-6.1-5.1-11.3-8.8-16c-5.9-7.6-11.6-15.5-18.9-21.8c-8.5-7.3-17.6-9.9-28.6-10.1c-4-0.1-8-0.1-12-0.2
	c-12.5-0.3-25.1-0.6-37.6-0.9c-11.5-0.3-23-0.6-34.5-1l-0.3,2.1H545.5l-1.6,10.5H649l-5.9,42H538l-1.5,10.5h105.1l-0.4,2.6
	c7.5-0.2,15-0.3,22.5-0.5c28.9-0.7,57.9-1.2,86.8-1.7c9.3-0.2,18.7-0.2,27.8-1.9C784.2,237.8,792.2,231.9,791.2,225.2z M90.2,98.6
	l-72.2,0.1l111.2,8.1l-2.8,19.6h126.3l7.6-54.1h-36.1l-2.5,18h-54.1l7.7-54.1h54.1l-2.6,18H263L270.7,0H144.3l-2.7,19.3
	c-36.9,0.1-114.5,0.2-114.5,0.2l113.6,6.4l-3.1,22c-15.5,0.3-18.7,0.4-41.1,0.4l-72.2,0.1l112,8.2l-1.8,13.1
	c-37.2,0.1-113.7,0.2-113.7,0.2l112.8,6.3l-3.1,22C115.7,98.5,112.2,98.6,90.2,98.6z M118.3,183.8l3-21.6L2.8,155.5
	c0,0,85.4-0.1,119.6-0.2l2.7-19.4h81.8l-11.5,81.8h-81.8l3.5-24.8L0,184.3l72.2-0.1C96.8,184.3,98.2,184.1,118.3,183.8z
	 M145.1,159.3l-5,35h35l5-35H145.1z M261.9,126.3L279.7,0H406l-17.8,126.3h-36.1l4.8-36.2h-54l-5,36.2H261.9z M306.9,63.2H361
	l3.9-27.1h-54.1L306.9,63.2z M308.3,96.7l-19.5,138.8c-40.8,0-207.7,0.2-207.7,0.2l206.7,7l-3,21.2c-24.6,0.4-24.3,0.6-50.7,0.5
	l-155.8,0.1l205.1,9.1l-1.3,8.9h41.3l26.2-185.5L308.3,96.7z M539,81.2L550.4,0h126.3L674,19.9c34,0.4,68,1.6,102,2.9
	c5.9,0.2,11.9,0.5,17.4,2.6c4.9,1.9,9.1,5.3,13,8.8c9.7,8.6,18.3,18.3,26.6,28.3c24.4-11.8,53.1-14.4,79.3-7.3
	c-0.6,2.7-1.2,5.4-2.1,8c-0.9,2.6-1.8,5.4-3.6,7.5c-1.9,2.3-4,2.6-6.9,2.4c-1.2-0.1-2.4-0.2-3.6-0.3c-6.1-0.4-12.2-0.6-18.3-0.7
	c-2.9-0.1-5.8-0.2-8.6-0.1c-4.8,0.1-4.6,0-4.6-0.1c1-1.8,5.6-2.1,7.4-2.2c2.7-0.3,5.5-0.3,8.2-0.4c5.9-0.4,18.4,2.1,19-6.3
	c0.2-2.3-2.9-3.2-5.2-3.4c-8.2-0.5-16.4-0.9-24.6-0.1c-10.6,1-21.3,4.4-29.1,11.9c0,0,0,0-0.1-0.1c-0.1,0.2-0.1,0.2,0.1,0.1
	c1.2,1.5,2.4,3,3.6,4.4c1.3,1.6,2.6,3.4,2.4,5.4c-0.4,4.7-7.6,4.6-10.9,4.5c-6.3-0.1-12.8-1.2-19.1-1.7c-15-1.3-30-2.1-45.1-3
	c-15.1-0.8-30.3-1.5-45.4-1.8c-20-0.4-40-0.7-60.1-0.9l-6.7,48.2H532.7l5.1-36.1H628l1.3-9H539z M580.1,45.1h90.2l-4.3,30.6
	c29.7-0.1,59.5,0,89.2,0.1c10.2,0.1,20.4,0.1,30.6,0.2c15.2,0.1,30.3,0.2,45.5,0.2c0.9,0,2,0.2,2.9,0.2c-0.1-0.2-0.3-0.5-0.4-0.7
	c-1.3-3-3.6-5.8-5.5-8.5c-1.9-2.7-4-5.4-6.1-8c-4.2-5.1-8.8-10-13.8-14.4c-9.4-8.5-20.4-17.5-33.5-18.5
	c-33.8-2.5-67.6-3.7-101.4-4.3l-2,14h-90.2L580.1,45.1z M229.2,135.9h-16.5l-11.5,81.8h23.4l5.9-41.9l36,41.9h16.5l11.5-81.8H271
	l-5.9,41.9L229.2,135.9z M442,240.4h-63.1l8.9-63.1h63.1l-3,21h42l8.9-63.1H351.7L331,282.5h147.1l8.8-63.1h-42L442,240.4z
	 M397.3,126.3L415.1,0h126.3l-14,99.3h-27l23.3,27.1h-51.1l-33.8-39.3l-5.5,39.3H397.3z M442.2,63.2h54.1l3.9-27.1h-54.1L442.2,63.2
	z"/>
</svg>
