<?xml version="1.0" encoding="utf-8"?>
<!-- Generator: Adobe Illustrator 24.3.0, SVG Export Plug-In . SVG Version: 6.00 Build 0)  -->
<svg version="1.1" id="Layer_2" xmlns="http://www.w3.org/2000/svg" xmlns:xlink="http://www.w3.org/1999/xlink" x="0px" y="0px"
	 viewBox="0 0 473.6 483.3" style="enable-background:new 0 0 473.6 483.3;" xml:space="preserve">
<style type="text/css">
	.st0{fill:#54C0E8;}
	.st1{fill:#21224D;}
</style>
<g>
	<g>
		<path class="st0" d="M123.6,317.5v-0.4v-0.6c0.1-3.2,1.6-5.8,4.2-7.7c3.1,1.6,5.5,3.8,7.3,6.5c9.2-0.1,19.2-4.9,27-11.5
			c5,5.3,5.6,11.7,1.6,17.6c-4.7,6.8-8.1,12.6-10.5,17.5l2.1-2.4l2-2.3c1.6-1.9,2.9-3.3,4-4.5c5.9-6.8,14.1-16.2,21.3-20.3
			c4.1,2.2,5.4,7,4,14.2c-6.4,7.7-11,16.6-14.1,26.5c3.8-3.2,7.5-6.8,11.3-10.4c1.4-1.3,2.8-2.7,4.4-4.3l0.9-1l0.9-0.8
			c0.7-0.8,1.4-1.5,1.7-1.8c3.6-3.5,6.4-4,8.1-1.3c-10.9,12.8-21,23.3-29.9,31.4c-5-2.8-7.3-6.7-6.9-11.6c1.4-5.6,2.9-10.8,4.8-15.7
			l-0.3,0.5c-1.4,0.9-4.1,3.8-8.1,8.5c-4.9,5.7-9.6,11.9-14.1,18.2c-8.2-5.7-7.9-10.4-3.6-19.5c5.5-11.8,9.5-19.8,12-24.2
			c-4.4,2.5-9.5,4.5-15.3,6c0.1,0.6,0.1,1.3,0.1,1.9c0.5,5.7-2.8,14.7-7.9,22.6c-5.4,8-11.9,13.6-17,13.1c-4.3-2-7-6.5-8.2-13.6
			c0-10.5,6.5-23,15.9-32.5c0.8,0.2,1.6,0.6,2.1,1.1c0.1,0.1,0.1,0.2,0.2,0.3h0.1L123.6,317.5z M123.2,327.8l-2,2.8l-1.9,2.9
			c-2.8,4.2-6.8,10.3-6.7,15.6c0.1,3.1,1,4.3,2.8,3.3c1.6-0.7,3.5-2.8,6-6.3c5.1-7.2,9-14.2,11.6-21.2c-4.4-0.4-7.2-1.9-8.5-4.3
			l-0.1,0.6C124.5,323.2,124,325.3,123.2,327.8z"/>
	</g>
	<g>
		<path class="st0" d="M144.9,180c0-1.9-0.2-3.8-1-5.7h-0.2c-23.7,29.7-60.1,78.1-81.9,78.1h-1.4c-0.5,0-1.4-0.2-3.1-0.5
			c-6-4.1-9.1-10.3-9.1-19.2c0-17.7,12.2-42.9,36.9-75.7c21.3-27.1,40.9-47.2,59.1-59.9c-32.6,38.6-48.1,59.4-48.1,71.8
			c0,3.6,1.4,6.7,4.5,9.3c5.5,4.1,12,6,19.2,6l0.5-0.2c-0.2-1.2-0.5-2.2-0.5-2.6V180c0-3.1,0.5-5.7,1.4-7.9c0-0.2,0.1-0.5,0.2-0.7
			c20.8-30.8,86.1-105,206.3-49.7c0,0,44.8-23.7,23.7-27.7c0,0-135.7-32.7-202.5,22.9c10.3-16.8,15.4-26.9,15.4-30.1v-1.2
			c0-2.6-1.2-5.3-3.4-7.7c-3.1-3.6-7.7-6.2-14.1-7.9c-8.6,5-22.3,16.3-40.9,33.8c-16.8,16.5-28.3,28.7-34.2,36.2
			c-33.3,40.2-49.8,71.8-49.8,95.1v3.1c0,9.6,3.4,18.2,10.3,25.6C40,271.5,47,275.3,53,275.3h2.2c11.3,0,26.1-8.4,44.1-25.4
			c13.2-13.6,21.8-23.7,26.1-29.9c13.2-16,19.6-29,19.6-39.3V180z"/>
		<path class="st0" d="M233.5,127.8c-6.5,7.4-12.5,15.6-17.7,24.4c-4.3-22.8-12.7-29.9-25.1-21.6c-10.8,7.4-23.7,25.6-38.8,54.6
			c-2.9,5.7-5.7,11.5-8.4,17.5c-9.6,20.4-10.5,31.6,8.4,44.3c8.4-6.2,22-20.4,41.4-42.1c-1.7,5.5-3.1,10.8-4.3,16
			c-1,11.3,4.3,20.1,15.6,26.3c5-33.8,17.7-62.7,38.1-86.9C245.7,143.8,242.9,133.1,233.5,127.8z M187.8,190.5
			c-8.9,10.5-16.8,18.9-25.1,26.3c1.2-4.1,4.3-12.2,8.1-20.1c9.6-22.3,20.4-40.7,27.3-42.4c4.3-1,6.9,4.5,7.9,16.3
			C203.8,172.6,197.6,179.3,187.8,190.5z"/>
		<path class="st0" d="M392.3,166.1l-1.7,1.7l-2.2,1.9c-1.7,1.4-3.1,2.9-4.3,4.1c-3.6,3.1-6.7,6.2-9.8,9.1
			c-8.6,7.7-17.2,14.8-26.1,21.8c-0.2-1.2-0.5-2.2-0.7-3.4l-0.5-2.2l-0.5-2.4l-1-4.8c-0.7-3.8-1.2-6.9-1-9.6
			c0.2-12.5,8.6-22.8,24.9-31.1c-6.9,15.1-5.3,23.2,5,24.7c-1-4.1,0.2-9.6,3.6-16l2.2-4.1l1.9-3.8c1.7-3.1,2.6-5.5,3.1-7.2
			c-2.4-8.6-7.7-14.4-15.6-17.5c-12.7,4.8-24.4,12.5-35.2,23c-14.6,15.8-17.2,25-11,40.6c-8.3,7-22.8,18-43.6,32.9
			c6.9-15.3,17.2-29.2,30.4-41.7c3.6-12.5,0.7-20.4-8.4-23.9c-3.6-1.2-12.9-3.6-16.5-4.3c4.8-6,6.9-11,6.2-14.6
			c-0.7-5.7-6.2-11-13.6-12.7c-8.9-1.9-17,1.2-24.2,9.6c-7.7,8.9-7.2,18.7,7.9,25.4c-19.9,23.9-36.2,46.7-49.1,68
			c-13.4,22.3-6.5,36.4,14.8,37.6c-4.1-15.1,23.7-69.7,48.6-101.1c4.6,1,9.6,1.7,15.1,2.4c-15.1,16.3-26.6,36.6-34.7,61.3
			c-1.2,8.4,3.8,14.8,15.1,19.2c1.7-1.2,4.3-3.4,7.9-6l4.1-3.1l4.3-3.4c6.9-5.3,13.2-10.1,18.4-14.1c8.4-6.6,15.9-13,22.6-19.2
			c1.8,5.5,2.7,10.4,2.5,14.4c-4.1,2.9-8.1,5.7-12,8.4c-2.2,1.7-3.8,4.1-4.5,6.7c-0.5,1.2-0.7,2.4-0.7,3.6c-0.2,8.4,3.4,11,11,11
			c14.1,0,22-11,23.9-26.3c23-19.4,42.9-37.1,61.8-56.5C406.9,158,400.7,158.4,392.3,166.1z M270.9,148.6c-0.7,1.2-1.4,1.9-1.7,2.2
			c-8.4-1.9-9.1-6.9-5-11.5c3.8-4.5,9.8-5.7,12.5-1C277.6,140.2,272.8,146.5,270.9,148.6z"/>
	</g>
	<g>
		<path class="st0" d="M258,308.3c18.9-3.6,37.4-16.3,46.9-29.9c9.6-13.6,7.9-24.9-8.1-25.6h-3.4c-10.8,0.2-23,7.9-37.1,23
			c-4.8,5.3-9.6,11-14.1,17l-1.3,1.8c-10.6-3.9-104.1-37.7-140.8-24.7c0,0-15.2,13.9-14.5,25.7c0,0,67.6-20.2,149.3,7.3l-1.8,2.5
			c-14.4,21.3-25.9,44.1-40.9,75.9c-9.6,19.9-10.1,30.7,8.1,43.1C211.5,385,251,310,258,308.3z M284.1,274.1
			c6.9-6,10.8-8.4,11.7-7.4c-0.2,6-17.2,20.8-30.4,26.8C270.9,286.8,277.1,280.3,284.1,274.1z"/>
		<path class="st0" d="M398.3,348.3c-0.7,0.7-1.4,1.4-2.6,2.4l-1.4,1.2l-1.4,1.4c-2.6,2.2-4.8,3.8-6.5,5.5
			c-5.5,4.8-10.8,9.1-15.8,13.2c-14.1,11.3-29,21.8-44.5,31.4c-3.6-3.8-3.1-14.4,1.7-21.3c1.2,2.6,3.4,4.3,6.5,5
			c26.6-15.6,44.8-33,54.8-52.2c3.1-33.8-12.2-37.6-34.5-21.1c-9.7,7.2-19.8,17.4-28.5,28.5c-4.8,3.8-10.1,9.7-16.5,15.8l-2.4,2.2
			l-2.4,2.4l-5,4.8c-3.6,3.6-6.9,6.7-10.1,9.6c-17.5,16-28.7,24.7-33.8,25.9c-9.3-14.1,7.9-44.5,28-66.6c0.2-0.2,0.7-0.7,1-1.2
			c0.5-0.5,1-1,1.4-1.4c1.2-1.4,2.4-2.6,3.6-3.6c3.1-3.1,5.7-4.8,7.4-5.3c-0.2,1-0.7,2.4-1.4,4.1l-1,2.2l-1.2,2.4
			c-1.7,3.8-2.6,6.9-2.9,9.3c-1.2,7.2,2.9,11.7,12.2,13.6c-1.2-4.5-0.2-10.1,2.4-16.5c0.7-2.2,1.9-5,3.6-8.4l2.2-4.1l1.9-3.8
			c5.5-12.2,5-18.7-8.6-21.3c-17.2-1-38.1,23.2-47.9,35.7c-4.1,5-7.7,9.8-10.3,14.1c-13.4,21.6-17.5,40.7-12.5,57.5
			c3.4,10.8,10.8,15.8,22.5,14.6c11.9-4.5,31.2-22.9,47.9-40c-1.7,8.2-2,17.2-0.3,24.4c2.6,11.7,10.1,16.8,22,15.6
			c18.2-6.9,48.4-32.3,90.8-76.4C412.7,341.2,406.4,341.4,398.3,348.3z M368.6,326.5c1.7-1.2,4.5,0.5,4.5,2.4
			c1,4.8-29.5,35.7-38.1,38.3C346.1,349.3,357.4,335.6,368.6,326.5z"/>
	</g>
	<g>
		<g>
			<path class="st0" d="M160.3,13.7l-11.4,3.9l1.8,5.2l10.1-3.4l1.1,3.2L151.7,26l1.8,5.4l11.6-3.9l1.1,3.2l-15.1,5.1l-6.8-20.2
				l15-5.1L160.3,13.7z"/>
			<path class="st0" d="M179.7,14.6c4.6,0.1,7.3,1.1,8.1,4.6c0.9,3.9-1.6,6.9-6,7.9c-3.2,0.7-6.4,0.3-9.4-1.4l1.6-3.1
				c2.4,1.3,4.6,1.8,7.2,1.2c2.3-0.5,3.4-1.9,3.1-3.5c-0.3-1.5-1.4-2.1-5.4-2.1c-4.7-0.1-7.5-0.8-8.3-4.7c-0.8-3.6,1.6-6.7,5.7-7.7
				c3-0.7,5.6-0.3,8.1,0.9l-1.3,3.2c-2.2-1-4.2-1.3-6.1-0.9c-2.1,0.5-3.1,1.9-2.8,3.3C174.4,14,175.5,14.5,179.7,14.6z"/>
			<path class="st0" d="M205.9,22.6l-3.7,0.5L200,5.4l-6.7,0.8l-0.4-3.4L210,0.7l0.4,3.4l-6.7,0.8L205.9,22.6z"/>
			<path class="st0" d="M217.1,21.6l-0.3-4.2l4-0.2l0.3,4.2L217.1,21.6z"/>
			<path class="st0" d="M248.6,0l2.6,0.1L250,21.6l-3.7-0.2l1-17.6l-3.9,0.8l-0.6-3.1L248.6,0z"/>
			<path class="st0" d="M266,23.6c-2.9-0.4-4.8-1.8-6.4-3.5l2.4-2.5c1.4,1.6,2.7,2.4,4.5,2.7c3.1,0.4,5.4-2,6-5.9
				c-1.2,1.1-3,1.9-5.3,1.5c-4.5-0.6-7.1-3.7-6.5-7.8c0.6-4.2,4.2-6.9,8.9-6.2c2.7,0.4,4.3,1.4,5.5,3.1c1.3,1.8,2,4.3,1.4,8.4
				C275.8,20.2,271.7,24.4,266,23.6z M269.3,5.1c-2.6-0.4-4.4,1.2-4.7,3.4c-0.3,2.2,1.1,4,3.8,4.4c2.7,0.4,4.5-1.1,4.8-3.2
				C273.5,7.4,272,5.5,269.3,5.1z"/>
			<path class="st0" d="M287.5,5.3L302,8.8l-0.7,2.8l-13.7,15.7l-4.1-1L297.1,11l-10.4-2.5L287.5,5.3z"/>
			<path class="st0" d="M311,18.1l-1.8-2.8c2.9-2,5.3-2.9,8.9-1.7c4,1.4,5.8,4.8,4.5,8.4c-1.1,3.2-3.4,4.3-8,6l-5.3,2l9.6,3.3
				l-1.1,3.1l-14.6-5.1l1-2.8l9-3.5c3.6-1.4,5-2.3,5.7-4.1c0.7-2-0.3-3.6-2.2-4.3C314.9,16.1,313.3,16.6,311,18.1z"/>
		</g>
	</g>
	<g>
		<path class="st1" d="M131.8,309.3v-0.4v-0.6c0.1-3.2,1.6-5.8,4.2-7.7c3.1,1.6,5.5,3.8,7.3,6.5c9.2-0.1,19.2-4.9,27-11.5
			c5,5.3,5.6,11.7,1.6,17.6c-4.7,6.8-8.1,12.6-10.5,17.5l2.1-2.4l2-2.3c1.6-1.9,2.9-3.3,4-4.5c5.9-6.8,14.1-16.2,21.3-20.3
			c4.1,2.2,5.4,7,4,14.2c-6.4,7.7-11,16.6-14.1,26.5c3.8-3.2,7.5-6.8,11.3-10.4c1.4-1.3,2.8-2.7,4.4-4.3l0.9-1l0.9-0.8
			c0.7-0.8,1.4-1.5,1.7-1.8c3.6-3.5,6.4-4,8.1-1.3c-10.9,12.8-21,23.3-29.9,31.4c-5-2.8-7.3-6.7-6.9-11.6c1.4-5.6,2.9-10.8,4.8-15.7
			l-0.3,0.5c-1.4,0.9-4.1,3.8-8.1,8.5c-4.9,5.7-9.6,11.9-14.1,18.2c-8.2-5.7-7.9-10.4-3.6-19.5c5.5-11.8,9.5-19.8,12-24.2
			c-4.4,2.5-9.5,4.5-15.3,6c0.1,0.6,0.1,1.3,0.1,1.9c0.5,5.7-2.8,14.7-7.9,22.6c-5.4,8-11.9,13.6-17,13.1c-4.3-2-7-6.5-8.2-13.6
			c0-10.5,6.5-23,15.9-32.5c0.8,0.2,1.6,0.6,2.1,1.1c0.1,0.1,0.1,0.2,0.2,0.3h0.1L131.8,309.3z M131.4,319.6l-2,2.8l-1.9,2.9
			c-2.8,4.2-6.8,10.3-6.7,15.6c0.1,3.1,1,4.3,2.8,3.3c1.6-0.7,3.5-2.8,6-6.3c5.1-7.2,9-14.2,11.6-21.2c-4.4-0.4-7.2-1.9-8.5-4.3
			l-0.1,0.6C132.7,315,132.2,317.1,131.4,319.6z"/>
	</g>
	<g>
		<path class="st1" d="M153.1,171.8c0-1.9-0.2-3.8-1-5.7h-0.2c-23.7,29.7-60.1,78.1-81.9,78.1h-1.4c-0.5,0-1.4-0.2-3.1-0.5
			c-6-4.1-9.1-10.3-9.1-19.2c0-17.7,12.2-42.9,36.9-75.7c21.3-27.1,40.9-47.2,59.1-59.9c-32.6,38.6-48.1,59.4-48.1,71.8
			c0,3.6,1.4,6.7,4.5,9.3c5.5,4.1,12,6,19.2,6l0.5-0.2c-0.2-1.2-0.5-2.2-0.5-2.6v-1.4c0-3.1,0.5-5.7,1.4-7.9c0-0.2,0.1-0.5,0.2-0.7
			c20.8-30.8,86.1-105,206.3-49.7c0,0,44.8-23.7,23.7-27.7c0,0-135.7-32.7-202.5,22.9c10.3-16.8,15.4-26.9,15.4-30.1v-1.2
			c0-2.6-1.2-5.3-3.4-7.7c-3.1-3.6-7.7-6.2-14.1-7.9c-8.6,5-22.3,16.3-40.9,33.8c-16.8,16.5-28.3,28.7-34.2,36.2
			c-33.3,40.2-49.8,71.8-49.8,95.1v3.1c0,9.6,3.4,18.2,10.3,25.6c7.9,7.7,14.8,11.5,20.8,11.5h2.2c11.3,0,26.1-8.4,44.1-25.4
			c13.2-13.6,21.8-23.7,26.1-29.9c13.2-16,19.6-29,19.6-39.3V171.8z"/>
		<path class="st1" d="M241.7,119.6c-6.5,7.4-12.5,15.6-17.7,24.4c-4.3-22.8-12.7-29.9-25.1-21.6c-10.8,7.4-23.7,25.6-38.8,54.6
			c-2.9,5.7-5.7,11.5-8.4,17.5c-9.6,20.4-10.5,31.6,8.4,44.3c8.4-6.2,22-20.4,41.4-42.1c-1.7,5.5-3.1,10.8-4.3,16
			c-1,11.3,4.3,20.1,15.6,26.3c5-33.8,17.7-62.7,38.1-86.9C254,135.6,251.1,124.8,241.7,119.6z M196,182.3
			c-8.9,10.5-16.8,18.9-25.1,26.3c1.2-4.1,4.3-12.2,8.1-20.1c9.6-22.3,20.4-40.7,27.3-42.4c4.3-1,6.9,4.5,7.9,16.3
			C212.1,164.3,205.8,171.1,196,182.3z"/>
		<path class="st1" d="M400.5,157.9l-1.7,1.7l-2.2,1.9c-1.7,1.4-3.1,2.9-4.3,4.1c-3.6,3.1-6.7,6.2-9.8,9.1
			c-8.6,7.7-17.2,14.8-26.1,21.8c-0.2-1.2-0.5-2.2-0.7-3.4l-0.5-2.2l-0.5-2.4l-1-4.8c-0.7-3.8-1.2-6.9-1-9.6
			c0.2-12.5,8.6-22.8,24.9-31.1c-6.9,15.1-5.3,23.2,5,24.7c-1-4.1,0.2-9.6,3.6-16l2.2-4.1l1.9-3.8c1.7-3.1,2.6-5.5,3.1-7.2
			c-2.4-8.6-7.7-14.4-15.6-17.5c-12.7,4.8-24.4,12.5-35.2,23c-14.6,15.8-17.2,25-11,40.6c-8.3,7-22.8,18-43.6,32.9
			c6.9-15.3,17.2-29.2,30.4-41.7c3.6-12.5,0.7-20.4-8.4-23.9c-3.6-1.2-12.9-3.6-16.5-4.3c4.8-6,6.9-11,6.2-14.6
			c-0.7-5.7-6.2-11-13.6-12.7c-8.9-1.9-17,1.2-24.2,9.6c-7.7,8.9-7.2,18.7,7.9,25.4c-19.9,23.9-36.2,46.7-49.1,68
			c-13.4,22.3-6.5,36.4,14.8,37.6c-4.1-15.1,23.7-69.7,48.6-101.1c4.6,1,9.6,1.7,15.1,2.4c-15.1,16.3-26.6,36.6-34.7,61.3
			c-1.2,8.4,3.8,14.8,15.1,19.2c1.7-1.2,4.3-3.4,7.9-6l4.1-3.1l4.3-3.4c6.9-5.3,13.2-10.1,18.4-14.1c8.4-6.6,15.9-13,22.6-19.2
			c1.8,5.5,2.7,10.4,2.5,14.4c-4.1,2.9-8.1,5.7-12,8.4c-2.2,1.7-3.8,4.1-4.5,6.7c-0.5,1.2-0.7,2.4-0.7,3.6c-0.2,8.4,3.4,11,11,11
			c14.1,0,22-11,23.9-26.3c23-19.4,42.9-37.1,61.8-56.5C415.1,149.7,408.9,150.2,400.5,157.9z M279.1,140.4
			c-0.7,1.2-1.4,1.9-1.7,2.2c-8.4-1.9-9.1-6.9-5-11.5c3.8-4.5,9.8-5.7,12.5-1C285.8,132,281,138.2,279.1,140.4z"/>
	</g>
	<g>
		<path class="st1" d="M266.2,300.1c18.9-3.6,37.4-16.3,46.9-29.9c9.6-13.6,7.9-24.9-8.1-25.6h-3.4c-10.8,0.2-23,7.9-37.1,23
			c-4.8,5.3-9.6,11-14.1,17l-1.3,1.8c-10.6-3.9-104.1-37.7-140.8-24.7c0,0-15.2,13.9-14.5,25.7c0,0,67.6-20.2,149.3,7.3l-1.8,2.5
			c-14.4,21.3-25.9,44.1-40.9,75.9c-9.6,19.9-10.1,30.7,8.1,43.1C219.7,376.8,259.3,301.8,266.2,300.1z M292.3,265.9
			c6.9-6,10.8-8.4,11.7-7.4c-0.2,6-17.2,20.8-30.4,26.8C279.1,278.6,285.4,272.1,292.3,265.9z"/>
		<path class="st1" d="M406.5,340.1c-0.7,0.7-1.4,1.4-2.6,2.4l-1.4,1.2l-1.4,1.4c-2.6,2.2-4.8,3.8-6.5,5.5
			c-5.5,4.8-10.8,9.1-15.8,13.2c-14.1,11.3-29,21.8-44.5,31.4c-3.6-3.8-3.1-14.4,1.7-21.3c1.2,2.6,3.4,4.3,6.5,5
			c26.6-15.6,44.8-33,54.8-52.2c3.1-33.8-12.2-37.6-34.5-21.1c-9.7,7.2-19.8,17.4-28.5,28.5c-4.8,3.8-10.1,9.7-16.5,15.8l-2.4,2.2
			l-2.4,2.4l-5,4.8c-3.6,3.6-6.9,6.7-10.1,9.6c-17.5,16-28.7,24.7-33.8,25.9c-9.3-14.1,7.9-44.5,28-66.6c0.2-0.2,0.7-0.7,1-1.2
			c0.5-0.5,1-1,1.4-1.4c1.2-1.4,2.4-2.6,3.6-3.6c3.1-3.1,5.7-4.8,7.4-5.3c-0.2,1-0.7,2.4-1.4,4.1l-1,2.2l-1.2,2.4
			c-1.7,3.8-2.6,6.9-2.9,9.3c-1.2,7.2,2.9,11.7,12.2,13.6c-1.2-4.5-0.2-10.1,2.4-16.5c0.7-2.2,1.9-5,3.6-8.4l2.2-4.1l1.9-3.8
			c5.5-12.2,5-18.7-8.6-21.3c-17.2-1-38.1,23.2-47.9,35.7c-4.1,5-7.7,9.8-10.3,14.1c-13.4,21.6-17.5,40.7-12.5,57.5
			c3.4,10.8,10.8,15.8,22.5,14.6c11.9-4.5,31.2-22.9,47.9-40c-1.7,8.2-2,17.2-0.3,24.4c2.6,11.7,10.1,16.8,22,15.6
			c18.2-6.9,48.4-32.3,90.8-76.4C420.9,332.9,414.7,333.2,406.5,340.1z M376.8,318.3c1.7-1.2,4.5,0.5,4.5,2.4
			c1,4.8-29.5,35.7-38.1,38.3C354.3,341.1,365.6,327.4,376.8,318.3z"/>
	</g>
	<g>
		<path class="st0" d="M378.5,434.3c-0.6,0-1.2-0.3-1.6-0.8c-0.7-0.9-0.5-2.2,0.4-2.9c58.6-44.4,92.1-112,92.1-185.5
			c0-44-12.4-86.9-35.8-124c-22.8-36.1-54.9-65.2-93-84.3c-1-0.5-1.4-1.7-0.9-2.8c0.5-1,1.7-1.4,2.8-0.9
			c38.8,19.4,71.5,49,94.6,85.7c23.8,37.7,36.4,81.4,36.4,126.2c0,74.7-34.2,143.5-93.8,188.7C379.4,434.2,379,434.3,378.5,434.3z"
			/>
	</g>
	<g>
		<path class="st0" d="M86.3,427.3c-0.5,0-0.9-0.2-1.3-0.5C31,381.7,0,315.5,0,245.2C0,158.9,47,79.4,122.6,37.7
			c1-0.5,2.2-0.2,2.8,0.8c0.5,1,0.2,2.2-0.8,2.8C50.3,82.2,4.1,160.4,4.1,245.2c0,69.1,30.4,134.2,83.5,178.5c0.9,0.7,1,2,0.3,2.9
			C87.4,427.1,86.9,427.3,86.3,427.3z"/>
	</g>
	<g>
		<path class="st0" d="M113,448.2l19.8-15.6l4.1,2.2l-2.5,25.1l-4.6-2.5l0.6-5.5l-8.5-4.7l-4.3,3.5L113,448.2z M125.6,444.1l5.4,2.9
			l0.9-8L125.6,444.1z"/>
		<path class="st0" d="M152.3,467.7c-1.7-0.6-3.2-1.6-4.5-2.7c-1.4-1.2-2.4-2.6-3.3-4.2l4.1-2.3c1.4,2.6,3.2,4.2,5.4,5.1
			c1,0.4,1.8,0.5,2.5,0.3c0.7-0.1,1.2-0.5,1.4-1.2l0-0.1c0.2-0.4,0.2-0.8,0.1-1.2c-0.1-0.4-0.4-0.8-0.9-1.3
			c-0.5-0.5-1.3-1.2-2.4-1.9c-0.6-0.4-1.1-0.8-1.6-1.2c-0.4-0.3-0.9-0.7-1.3-1.1c-0.4-0.4-0.8-0.8-1.1-1.2c-0.3-0.4-0.5-0.8-0.7-1.2
			c-0.2-0.4-0.3-0.9-0.4-1.4s0-1,0-1.5c0.1-0.5,0.2-1.1,0.5-1.7l0-0.1c0.7-1.9,2.1-3.2,3.9-3.9c1.9-0.6,3.9-0.5,6.1,0.3
			c3.1,1.2,5.4,3.1,6.9,5.8l-3.8,2.6c-1.5-2.2-3.1-3.6-4.7-4.3c-0.9-0.3-1.6-0.4-2.2-0.3c-0.6,0.2-1,0.5-1.2,1.1l0,0.1
			c-0.3,0.7-0.2,1.3,0.3,1.9c0.5,0.6,1.5,1.5,3.3,2.7c1,0.7,1.9,1.4,2.5,2.1c0.7,0.7,1.2,1.3,1.6,2.1c0.4,0.7,0.6,1.5,0.7,2.3
			c0,0.8-0.1,1.7-0.5,2.6l0,0.1c-0.8,2.1-2.2,3.4-4,4.1C156.8,468.7,154.7,468.6,152.3,467.7z"/>
		<path class="st0" d="M172.2,474.2l5.4-22.4l4.9,1.2l-2.1,8.9l9.1,2.2l2.1-8.9l4.9,1.2l-5.4,22.4l-4.9-1.2l2.2-9l-9.1-2.2l-2.2,9
			L172.2,474.2z"/>
		<path class="st0" d="M215.4,482.5c-2.2-0.2-4.2-0.9-5.8-2.2s-3-2.8-3.8-4.7c-0.8-1.9-1.1-3.9-0.9-6.1l0-0.1
			c0.2-2.2,0.9-4.1,2.1-5.8c1.2-1.7,2.7-3,4.7-3.9c1.9-0.9,4-1.2,6.3-1c2,0.2,3.7,0.7,5.1,1.4c1.4,0.7,2.6,1.7,3.6,3l-3.6,3.4
			c-0.9-0.9-1.7-1.7-2.6-2.2c-0.9-0.5-1.9-0.8-3-1c-1.9-0.2-3.6,0.3-5,1.6c-1.4,1.3-2.2,2.9-2.4,4.9l0,0.1c-0.2,2,0.3,3.8,1.4,5.3
			c1.1,1.5,2.6,2.4,4.6,2.6c1.2,0.1,2.3,0,3.2-0.3c0.9-0.3,2-0.9,3.1-1.7l2.9,3.6c-1.4,1.2-2.9,2.1-4.4,2.7
			C219.3,482.5,217.5,482.7,215.4,482.5z"/>
		<path class="st0" d="M236.9,483.3l-0.8-23l10.5-0.4c2.9-0.1,5.2,0.6,6.8,2.1c1.4,1.3,2.1,3,2.2,5.2l0,0.1c0.1,1.8-0.3,3.3-1.2,4.5
			c-0.8,1.2-2,2.2-3.5,2.8l5.9,8l-5.9,0.2l-5.2-7.2l-4,0.1l0.3,7.4L236.9,483.3z M241.5,471.3l5.1-0.2c1.2,0,2.2-0.4,2.8-1
			c0.7-0.6,1-1.4,0.9-2.4l0-0.1c0-1.1-0.4-1.9-1.1-2.4c-0.7-0.5-1.7-0.8-3-0.7l-5,0.2L241.5,471.3z"/>
		<path class="st0" d="M284.6,478c-1.4,0.9-2.9,1.5-4.6,1.8c-1.7,0.3-3.4,0.3-5-0.1s-3-0.9-4.3-1.8c-1.2-0.9-2.3-2-3.1-3.3
			c-0.9-1.3-1.4-2.8-1.7-4.4l0-0.1c-0.3-1.6-0.3-3.2,0.1-4.7c0.3-1.5,1-2.9,1.8-4.2c0.9-1.2,2-2.3,3.4-3.2c1.4-0.9,2.9-1.5,4.7-1.8
			c2.3-0.4,4.4-0.3,6.5,0.5c2,0.7,3.7,1.9,5.1,3.5c1.3,1.6,2.2,3.5,2.6,5.6l0,0.1c0.3,1.6,0.2,3.2-0.1,4.7c-0.4,1.5-1,2.9-1.8,4.2
			C287.1,476.1,286,477.1,284.6,478z M275.5,474.9c1.2,0.5,2.4,0.6,3.7,0.3c1.3-0.2,2.4-0.8,3.4-1.6c0.9-0.8,1.6-1.8,2-3
			c0.4-1.2,0.4-2.4,0.2-3.7l0-0.1c-0.4-2-1.3-3.5-2.8-4.7c-1.5-1.2-3.3-1.6-5.3-1.2c-1.3,0.2-2.4,0.8-3.4,1.6c-0.9,0.8-1.6,1.8-2,3
			c-0.4,1.2-0.5,2.4-0.2,3.7l0,0.1c0.2,1.3,0.7,2.4,1.5,3.4C273.3,473.7,274.3,474.4,275.5,474.9z"/>
		<path class="st0" d="M304.2,473.9L297,452l16.7-5.4l1.4,4.4l-11.8,3.9l1.5,4.7l10.4-3.4l1.4,4.4l-10.4,3.4l2.8,8.5L304.2,473.9z"
			/>
		<path class="st0" d="M336.8,461.6L329,445l-6.3,3l-2-4.2l17.2-8.1l2,4.2l-6.3,3l7.8,16.6L336.8,461.6z"/>
	</g>
</g>
</svg>
